<?xml version="1.0" standalone="no"?><!DOCTYPE svg PUBLIC "-//W3C//DTD SVG 1.1//EN" "http://www.w3.org/Graphics/SVG/1.1/DTD/svg11.dtd"><svg t="1707055575324" class="icon" viewBox="0 0 1024 1024" version="1.1" xmlns="http://www.w3.org/2000/svg" p-id="5347" xmlns:xlink="http://www.w3.org/1999/xlink" width="200" height="200"><path d="M605.6 838.6l-3.4-515.9c-0.3-34.4-136.9-60.1-240.2-102.7-54.5-22.5-109-80-109-80s-51 157-0.8 261.2c32.3 66.9 105.9 140.9 139.2 212.4s117.5 247.6 117.5 247.6c26.9 41.9 97 25.6 96.7-22.6z" fill="#FF5555" p-id="5348"></path><path d="M656.8 830.4S721 661 756 586s29-55 84-179 44-266 44-266-39.1 38.1-109 59c-103.8 31.1-159.5 92.6-158 124l-55.7 478.4c-2.7 48.1 66.5 68.4 95.5 28z" fill="#FF999A" p-id="5349"></path><path d="M629.4 800.7s22.4-181.5 35.4-252.7 55.6-213.2 53.8-255.5C714.5 196.4 518 91 518 91S328.6 264.8 341.5 364.7c5.7 44.3 82.4 175.4 105.3 225.9s82.8 218.6 82.8 218.6c19.1 45.1 91.4 39 99.8-8.5z" fill="#FF999A" p-id="5350"></path><path d="M482.6 812.7c-9-24.5 25.3-47.7 88.4-48.2s96.6 21.4 96.6 44.5-82 117.8-135.1 137.4C479.4 966 456.3 966 430.9 966s-27.7-45 19.6-62.3c47.4-17.4 41.1-66.5 32.1-91z" fill="#2C4432" p-id="5351"></path><path d="M450.1 802.7c-3.7 0-7.3-2.1-9-5.7-27.2-57.2-68.4-145.6-88.2-188.1l-0.5-1c-16.8-36-44.6-73.4-71.5-109.7-26.5-35.7-51.6-69.4-67.6-102.6-2.4-5-0.3-11 4.7-13.4 5-2.4 11-0.3 13.4 4.7 15.2 31.5 39.7 64.5 65.7 99.4 27.5 37 56 75.3 73.6 113.2l0.5 1c19.8 42.5 61 130.9 88.2 188 2.4 5 0.3 11-4.7 13.3-1.7 0.6-3.2 0.9-4.6 0.9zM200.5 305.5c-5.3 0-9.7-4.2-10-9.5-0.2-4.1-0.4-8.8-0.4-13.5 0-5.5 4.5-10 10-10s10 4.5 10 10c0 4.2 0.2 8.6 0.4 12.5 0.3 5.5-4 10.2-9.5 10.5h-0.5zM201.3 256.1h-0.8c-5.5-0.4-9.6-5.2-9.2-10.7 4.8-64.5 21.5-116.3 22.2-118.4 1.1-3.4 3.9-5.9 7.3-6.7 3.4-0.8 7 0.3 9.5 2.9 0.5 0.6 53.7 56.2 105.6 77.6 7.8 3.1 16.9 6.8 26.1 10.2 5.2 1.9 7.8 7.6 5.9 12.8-1.9 5.2-7.6 7.8-12.8 5.9-9.5-3.5-18.8-7.2-26.8-10.4-40.8-16.9-80.8-51.7-100.3-70.3-5.3 19.9-13.6 56.5-16.7 97.8-0.4 5.3-4.8 9.3-10 9.3zM735.8 565.2c-1.4 0-2.9-0.3-4.3-1-5-2.4-7.1-8.4-4.7-13.3 7.3-15.2 12.4-25.5 17.3-35.5 11.9-23.8 22.1-44.3 56.7-122.5 41.4-93.3 44.6-198.5 43.9-241.4-18.1 13.5-51 34.3-96.9 48-26.9 8.1-51.7 18.5-73.7 31.1-4.8 2.7-10.9 1.1-13.6-3.7-2.7-4.8-1.1-10.9 3.7-13.6 23.3-13.3 49.5-24.4 77.9-32.9 66.5-19.9 104.5-56.2 104.9-56.6 2.8-2.7 6.9-3.5 10.5-2.2 3.6 1.4 6.1 4.7 6.4 8.6 0.1 1.5 2.8 36.9-1.4 88.1C858.7 265.6 848 335.7 819 401c-34.8 78.6-45.2 99.3-57.1 123.3-4.9 9.9-10 20.1-17.2 35.2-1.6 3.6-5.2 5.7-8.9 5.7zM639.3 797.8c-1.2 0-2.4-0.2-3.6-0.7-5.2-2-7.7-7.8-5.7-12.9 17.1-44.3 49.5-127.3 74.7-184.9 2.2-5.1 8.1-7.4 13.2-5.2s7.4 8.1 5.2 13.2c-25 57.3-57.3 139.9-74.3 184.1-1.7 4-5.5 6.4-9.5 6.4z" fill="#212121" p-id="5352"></path><path d="M603.3 769.5c-0.4 0-0.8 0-1.3-0.1-5.5-0.7-9.4-5.7-8.7-11.2 7.7-60.5 22-169.9 31.6-222 5-27.3 14.1-64.1 23.7-103 14.5-58.8 31-125.4 29.9-150.2-1.5-36.3-35.4-81-98-129.3-38.2-29.5-76.5-52-91.1-60.3-13.5 12.9-51 49.5-87 93.6-58 70.9-86 128.5-81.1 166.5 3.7 28.7 42.6 102.8 71 156.9 14.1 26.9 26.3 50.1 33.5 66.1 16.8 37.2 52.5 134.4 67 174.5 1.9 5.2-0.8 10.9-6 12.8-5.2 1.9-10.9-0.8-12.8-6-14.5-39.9-49.9-136.5-66.4-173.1-7-15.5-19.1-38.5-33-65.1-32.3-61.6-68.9-131.4-73.1-163.7-5.7-44.3 23.1-105.5 85.6-181.9 45.7-55.8 93.6-100 94.1-100.4 3.1-2.9 7.7-3.5 11.5-1.4 2 1.1 50.4 27.2 100.2 65.6 68.3 52.8 103.9 101.3 105.7 144.3 1.2 27.7-14.9 92.9-30.5 155.9-9.5 38.6-18.6 75.1-23.4 101.8-9.5 51.7-23.8 160.6-31.4 221-0.7 5-5 8.7-10 8.7z" fill="#212121" p-id="5353"></path><path d="M400.9 966c-14.1 0-24.8-9.3-27.3-23.6-3.4-19.1 8.8-45.4 43.5-58.1 17.5-6.4 27.6-18 30.8-35.3 3.4-18.7-2.7-37.6-4.7-42.9-3.7-10.1-2.3-20.7 4.1-29.8 13.5-19.6 48.6-31.5 93.7-31.8 57.9-0.5 83.8 16.6 94.1 26.8 8.2 8.2 12.6 17.7 12.6 27.7 0 21.9-41.9 67.9-50.3 76.8-46.7 50-79.4 65.5-91.3 69.9C451.2 966 426.8 966 400.9 966zM543 764.5h-1.9c-45.5 0.4-70.1 12.7-77.4 23.2-2.7 3.8-3.2 7.5-1.7 11.5 3.1 8.4 9.8 30.4 5.5 53.4-4.4 24.1-19.5 41.6-43.6 50.4-25.5 9.3-32.3 26.5-30.7 35.8 0.8 4.7 3.4 7.1 7.6 7.1 25.1 0 46.7 0 98.1-19 21.9-8.1 53.2-32.3 83.5-64.7 31.7-33.9 45-57.9 45-63.3 0-4.6-2.2-9.1-6.6-13.5-13.2-13.1-42.2-20.9-77.8-20.9z" fill="#212121" p-id="5354"></path><path d="M475 579c-4.5 0-8.5-3-9.7-7.5-7.2-27.9-27-67.2-46.2-105.1-27.1-53.7-50.5-100-46-125.2 3.2-17.6 15.9-42.5 37.8-74.1 15.9-23 30.8-40.8 31.4-41.6 3.5-4.2 9.8-4.8 14.1-1.3 4.2 3.5 4.8 9.8 1.3 14.1-16.2 19.5-59.5 76.5-64.8 106.4-3.3 18.6 21.9 68.5 44.2 112.6 19.6 38.9 40 79.1 47.7 109.1 1.4 5.3-1.8 10.8-7.2 12.2-0.9 0.3-1.8 0.4-2.6 0.4z" fill="#FFFFFF" p-id="5355"></path></svg>